<svg id="visual" viewBox="0 0 900 600" width="900" height="600" xmlns="http://www.w3.org/2000/svg" xmlns:xlink="http://www.w3.org/1999/xlink" version="1.1"><rect x="0" y="0" width="900" height="600" fill="#3a3e40"></rect><path d="M0 184L18.8 177.8C37.7 171.7 75.3 159.3 112.8 150C150.3 140.7 187.7 134.3 225.2 138.2C262.7 142 300.3 156 337.8 168.5C375.3 181 412.7 192 450.2 197C487.7 202 525.3 201 562.8 198.7C600.3 196.3 637.7 192.7 675.2 188C712.7 183.3 750.3 177.7 787.8 162.8C825.3 148 862.7 124 881.3 112L900 100L900 0L881.3 0C862.7 0 825.3 0 787.8 0C750.3 0 712.7 0 675.2 0C637.7 0 600.3 0 562.8 0C525.3 0 487.7 0 450.2 0C412.7 0 375.3 0 337.8 0C300.3 0 262.7 0 225.2 0C187.7 0 150.3 0 112.8 0C75.3 0 37.7 0 18.8 0L0 0Z" fill="#eff4fa" stroke-linecap="round" stroke-linejoin="miter"></path></svg>